<?xml version="1.0" standalone="no"?>
<!DOCTYPE svg PUBLIC "-//W3C//DTD SVG 20010904//EN"
 "http://www.w3.org/TR/2001/REC-SVG-20010904/DTD/svg10.dtd">
<svg version="1.0" xmlns="http://www.w3.org/2000/svg"
 width="300.000000pt" height="169.000000pt" viewBox="0 0 300.000000 169.000000"
 preserveAspectRatio="xMidYMid meet">
<metadata>
Created by potrace 1.10, written by Peter Selinger 2001-2011
</metadata>
<g transform="translate(0.000000,169.000000) scale(0.100000,-0.100000)"
fill="#000000" stroke="none">
<path d="M1466 1631 c-55 -86 -76 -131 -62 -131 6 0 3 -7 -6 -14 -10 -7 -18
-17 -18 -21 0 -4 7 -2 15 5 12 10 21 10 41 1 14 -6 48 -11 77 -10 60 0 42 13
-37 24 -25 4 -46 9 -46 12 0 9 35 70 69 122 l35 53 13 -48 c7 -27 15 -74 19
-104 8 -70 17 -85 24 -40 7 47 -9 160 -28 188 -25 39 -54 28 -96 -37z"/>
<path d="M271 1665 c-18 -8 -55 -15 -82 -15 -51 0 -66 -13 -26 -24 40 -11 78
-6 128 16 35 15 46 24 37 29 -17 11 -17 11 -57 -6z"/>
<path d="M10 1650 c0 -27 52 -89 92 -109 l43 -22 -69 5 c-51 4 -67 3 -59 -5 7
-7 43 -14 80 -16 55 -4 72 -2 85 11 9 9 22 16 28 16 6 0 8 5 5 10 -3 6 -23 10
-44 10 -64 0 -99 18 -127 66 -26 45 -34 52 -34 34z"/>
<path d="M1134 1589 c-29 -18 -34 -18 -68 -4 -49 21 -100 11 -123 -24 -9 -14
-17 -29 -16 -32 1 -3 -23 -5 -53 -4 -29 2 -54 -1 -54 -6 0 -5 -9 -9 -20 -9
-22 0 -48 -48 -52 -100 -2 -25 -7 -34 -18 -32 -8 2 -11 0 -7 -4 4 -4 -12 -15
-35 -24 -46 -17 -64 -42 -73 -103 -5 -28 -10 -37 -21 -33 -8 3 -14 2 -14 -2 0
-12 78 -97 84 -92 3 3 -1 24 -9 45 -19 53 -19 115 0 142 10 14 35 26 68 33
l52 12 -3 47 c-3 40 0 50 25 73 39 36 92 45 123 20 l24 -19 -27 -23 c-26 -23
-37 -60 -18 -60 5 0 11 -7 15 -15 4 -13 2 -13 -14 -5 -26 14 -72 12 -94 -5
-15 -11 -17 -22 -12 -54 5 -36 4 -39 -14 -34 -15 4 -20 0 -20 -16 0 -14 4 -20
12 -15 8 5 9 2 5 -9 -3 -9 -2 -19 3 -22 6 -4 10 -14 10 -23 0 -12 -9 -18 -31
-19 -44 -3 -79 -29 -86 -63 -4 -23 -11 -30 -29 -30 -34 0 -29 -16 7 -24 32 -6
79 1 79 13 0 3 -9 12 -20 19 -30 18 -24 40 16 59 42 21 66 10 75 -33 4 -16 7
-25 8 -21 0 5 9 1 18 -9 16 -15 16 -17 -2 -30 -23 -17 -39 -18 -68 -3 -12 7
-19 8 -15 4 4 -5 3 -14 -4 -22 -15 -19 -2 -29 17 -13 19 16 26 10 19 -17 -6
-21 -18 -24 -41 -10 -9 5 -11 3 -7 -6 3 -8 -3 -20 -12 -28 -16 -13 -17 -11
-12 14 4 19 1 27 -8 27 -8 0 -14 -7 -14 -16 0 -8 -4 -12 -10 -9 -5 3 -10 1
-10 -5 0 -6 11 -15 24 -21 25 -12 25 -39 0 -39 -8 0 -14 -4 -14 -9 0 -5 -2
-16 -5 -23 -4 -9 2 -14 15 -15 15 -1 20 4 20 24 0 23 3 25 31 19 17 -3 35 -6
39 -6 3 0 5 -14 2 -31 -3 -21 2 -37 15 -52 25 -28 55 -109 48 -128 -7 -20 -59
-39 -76 -28 -11 6 -10 11 6 23 18 13 16 14 -19 2 -36 -13 -70 -46 -46 -46 5 0
10 -6 10 -13 0 -20 30 -77 41 -77 5 0 -3 25 -18 55 -15 30 -24 57 -20 61 3 4
26 -5 50 -20 l45 -25 26 39 c24 37 46 52 46 31 0 -18 -24 -76 -34 -83 -14 -9
-2 -20 15 -13 8 3 20 19 26 36 10 25 16 29 34 24 20 -7 21 -5 15 25 -3 18 -6
50 -6 71 0 29 -4 39 -15 39 -9 0 -30 7 -46 16 -28 14 -29 17 -14 28 16 11 14
15 -14 43 -17 17 -51 41 -76 53 -25 12 -43 25 -40 30 2 4 23 10 45 14 22 3 58
14 81 22 38 16 39 17 23 35 -10 11 -18 27 -19 37 -1 9 -7 28 -14 41 -11 19
-11 25 0 33 11 8 10 9 -3 5 -18 -6 -31 14 -33 51 -1 21 9 27 47 24 13 -1 8 10
-18 50 -19 28 -33 58 -32 67 5 24 52 37 83 23 21 -10 25 -18 25 -56 0 -51 10
-106 19 -106 4 0 15 14 24 30 10 17 15 30 10 30 -4 0 -7 17 -7 38 3 65 2 64
25 52 l20 -11 -20 40 c-25 48 -27 98 -5 129 24 35 63 26 86 -20 22 -41 16 -61
-30 -110 -20 -22 -22 -28 -9 -28 8 0 19 5 22 10 3 6 15 10 26 10 10 0 19 6 19
14 0 8 6 16 13 19 10 3 10 9 0 26 -7 11 -13 31 -13 44 0 30 -39 67 -71 67 -29
0 -42 -8 -57 -35 -11 -19 -11 -18 -12 7 0 32 41 68 77 68 38 0 69 -39 77 -95
11 -87 25 -86 19 0 l-6 80 27 -24 26 -24 0 44 0 44 81 -82 c87 -88 85 -87 247
-114 75 -13 105 -28 55 -30 -25 0 -26 -1 -8 -9 16 -7 13 -9 -17 -9 -39 -1 -60
14 -31 22 10 3 1 5 -19 4 -21 -1 -38 -5 -38 -9 0 -4 -7 -8 -15 -8 -8 0 -15 7
-15 15 0 8 -8 19 -19 24 -15 8 -18 7 -17 -5 1 -16 -16 -27 -103 -68 -70 -33
-97 -34 -103 -2 -5 23 -2 24 24 19 30 -6 107 26 131 55 8 10 -1 8 -28 -6 -36
-18 -75 -26 -114 -23 -8 1 -11 8 -8 21 3 13 0 20 -9 20 -20 0 -27 -42 -14 -89
10 -40 13 -42 40 -36 26 6 28 4 24 -17 -2 -13 -1 -17 2 -10 7 15 106 66 148
76 16 4 69 2 117 -5 87 -13 89 -12 113 10 13 12 42 25 63 28 29 4 43 12 55 34
10 16 38 38 65 51 26 13 50 23 51 25 2 1 -1 10 -7 20 -10 17 -10 17 -11 0 0
-10 -4 -16 -9 -13 -5 3 -7 15 -4 26 4 14 0 20 -11 20 -16 0 -20 -10 -17 -42 1
-9 -3 -19 -9 -23 -5 -3 -10 0 -11 7 0 7 -4 4 -9 -7 -8 -19 -8 -19 -17 3 -8 22
-9 21 -22 -13 -15 -42 -87 -87 -102 -63 -5 7 -19 14 -31 14 -13 1 -59 5 -103
9 l-80 8 -80 79 c-112 110 -115 112 -171 77z m-305 -725 c2 -2 1 -10 -3 -19
-9 -24 -40 -14 -44 14 -3 20 -1 22 20 16 13 -4 25 -9 27 -11z m37 -86 c20 -24
34 -35 31 -26 -3 10 -2 20 2 23 5 2 11 -6 13 -20 3 -14 1 -25 -3 -25 -5 0 -6
-13 -2 -30 4 -20 2 -30 -7 -30 -6 0 -10 6 -7 13 2 6 -9 20 -25 30 -16 9 -33
29 -38 45 -6 15 -15 35 -20 45 -20 35 18 18 56 -25z"/>
<path d="M2144 1556 c-21 -22 -38 -61 -42 -91 -5 -40 9 -24 37 43 23 55 24 69
5 48z"/>
<path d="M2181 1544 c20 -46 26 -48 44 -14 16 31 16 32 -5 25 -12 -4 -27 -1
-36 6 -13 11 -14 9 -3 -17z"/>
<path d="M1845 1540 c4 -14 16 -38 26 -55 10 -16 25 -44 33 -61 8 -17 21 -35
28 -41 10 -9 13 -5 13 17 0 21 -3 26 -12 18 -9 -8 -16 1 -25 36 -8 30 -15 41
-21 33 -5 -8 -7 -5 -5 8 2 12 11 19 21 19 9 -1 17 4 17 12 0 17 -5 17 -30 4
-15 -8 -22 -5 -35 12 l-17 23 7 -25z"/>
<path d="M2269 1497 c9 -35 24 -76 34 -91 17 -25 23 -28 59 -22 31 5 47 2 74
-15 32 -20 36 -20 53 -5 10 9 32 16 49 16 17 0 34 5 37 10 3 6 13 10 21 10 8
0 12 -5 9 -10 -4 -6 -12 -8 -18 -4 -7 3 -1 -3 13 -14 l24 -20 11 21 c9 18 8
23 -7 25 -10 2 -18 7 -18 11 0 15 -54 0 -113 -31 -26 -13 -31 -4 -8 16 16 15
17 22 8 47 -6 16 -15 29 -20 29 -5 0 -6 -8 -2 -17 3 -10 7 -20 7 -23 2 -27 -6
-30 -75 -30 -87 0 -101 10 -122 90 -8 29 -18 57 -23 62 -5 5 -2 -20 7 -55z"/>
<path d="M2490 1535 c-19 -14 -29 -25 -22 -25 7 0 11 -3 10 -7 -2 -5 0 -10 4
-13 3 -3 18 12 32 33 29 43 24 46 -24 12z"/>
<path d="M1930 1543 c0 -16 86 -101 109 -108 16 -5 21 -4 17 4 -4 6 -15 11
-25 11 -10 0 -32 20 -50 45 -32 45 -51 63 -51 48z"/>
<path d="M2158 1488 c-2 -24 -11 -35 -36 -47 -28 -14 -32 -20 -30 -51 4 -47
33 -49 32 -3 -1 18 2 30 7 28 4 -3 11 0 14 6 5 7 14 3 26 -10 22 -24 28 -25
49 -11 12 8 11 10 -6 10 -30 0 -48 24 -36 47 9 16 0 63 -12 63 -3 0 -6 -14 -8
-32z"/>
<path d="M2226 1473 c-16 -47 -13 -73 5 -40 6 9 13 15 17 13 4 -2 6 13 4 35
-2 21 -5 39 -7 39 -2 0 -10 -21 -19 -47z"/>
<path d="M2527 1503 c-12 -11 -8 -51 6 -56 9 -3 12 5 9 29 -4 36 -5 38 -15 27z"/>
<path d="M2656 1488 c8 -26 25 -50 31 -44 5 5 -25 66 -33 66 -3 0 -2 -10 2
-22z"/>
<path d="M2550 1483 c0 -18 38 -59 46 -50 4 4 -4 20 -19 35 -15 14 -27 22 -27
15z"/>
<path d="M360 1447 c-38 -48 -132 -136 -163 -153 -16 -9 -27 -18 -24 -20 11
-11 82 28 121 66 22 22 58 45 79 51 47 13 48 20 1 12 l-36 -6 17 27 c10 14 24
30 33 35 8 4 10 11 5 14 -5 3 -20 -9 -33 -26z"/>
<path d="M1811 1444 c-11 -15 -21 -41 -21 -58 0 -35 34 -97 51 -94 17 5 33
-27 26 -53 -10 -41 -64 -73 -125 -76 -48 -2 -52 0 -47 18 9 26 -5 149 -16 149
-5 0 -9 -9 -9 -19 0 -11 -12 -29 -27 -41 -30 -23 -54 -23 -190 1 -18 3 -34 -1
-29 -9 2 -4 24 -9 47 -11 24 -1 55 -9 70 -18 34 -21 69 -81 69 -122 0 -36 23
-42 40 -11 6 11 24 27 40 35 49 25 104 5 166 -61 28 -30 57 -54 65 -54 8 0 32
-9 54 -21 36 -19 44 -20 90 -9 40 10 54 18 63 39 59 131 160 273 214 300 21
10 35 22 29 25 -12 8 -65 -4 -57 -12 3 -2 -9 -12 -26 -21 -17 -9 -33 -24 -34
-34 -1 -11 -6 -22 -10 -25 -4 -4 -4 1 -1 11 4 9 2 17 -3 17 -4 0 -11 -13 -15
-30 -4 -16 -10 -30 -15 -30 -4 0 -13 -13 -20 -30 -7 -16 -17 -30 -22 -30 -5 0
-7 -8 -3 -19 6 -20 -30 -91 -46 -91 -5 0 -9 11 -9 24 0 13 -7 27 -16 30 -9 4
-13 2 -8 -5 4 -7 1 -10 -7 -7 -17 6 -25 48 -10 57 5 4 13 49 17 100 5 67 4 92
-4 87 -6 -4 -12 3 -14 16 -2 13 -3 -25 -4 -83 -1 -58 -6 -114 -11 -124 -10
-17 -11 -17 -22 3 -9 17 -9 22 0 22 14 0 4 62 -17 102 -8 15 -14 43 -14 62 0
19 -4 38 -10 41 -6 4 -8 -7 -4 -27 l5 -33 -15 25 c-26 43 -17 1 9 -45 37 -62
46 -100 30 -121 -20 -28 1 -73 42 -90 41 -18 51 -39 29 -63 -22 -24 -60 -16
-76 15 -12 21 -78 88 -120 121 -13 10 -16 8 -17 -10 -1 -12 4 -31 12 -43 15
-24 10 -38 -9 -24 -16 13 -73 65 -69 64 7 -3 73 69 73 79 0 5 7 4 15 -3 10 -8
12 -16 6 -19 -6 -4 -2 -12 9 -19 12 -7 20 -8 20 -2 0 5 -4 10 -8 10 -5 0 -9 7
-9 15 0 8 5 15 10 15 6 0 -2 11 -17 25 -15 14 -24 25 -20 25 4 0 -4 12 -18 28
-40 44 -58 75 -58 102 l1 25 27 -31 c15 -17 40 -47 55 -65 33 -40 26 -22 -15
39 -16 23 -31 52 -33 64 -6 31 -11 32 -34 2z m-186 -254 c23 -9 25 -13 15 -25
-17 -21 -25 -19 -38 10 -13 28 -13 29 23 15z m320 -90 c3 -5 1 -10 -4 -10 -6
0 -11 -7 -11 -15 0 -9 9 -15 25 -15 24 0 44 -24 32 -37 -8 -8 -48 3 -71 20
-14 10 -17 21 -12 40 6 27 29 36 41 17z"/>
<path d="M125 1440 c-33 -11 -70 -20 -82 -20 -12 0 -25 -5 -28 -10 -9 -15 68
-2 133 22 28 11 52 21 52 24 0 7 -11 4 -75 -16z"/>
<path d="M2712 1420 c-1 -21 6 -45 18 -60 11 -14 20 -20 20 -13 0 6 -5 15 -10
18 -6 4 -8 11 -5 16 4 5 2 9 -4 9 -5 0 -12 15 -14 33 l-4 32 -1 -35z"/>
<path d="M2655 1430 c-4 -6 -1 -18 6 -26 6 -8 9 -17 6 -21 -4 -3 1 -18 10 -34
14 -23 26 -29 70 -35 62 -7 82 -28 84 -84 l1 -35 8 34 c10 42 -2 76 -32 92
-13 7 -28 19 -35 28 -11 14 -12 13 -13 -7 0 -14 -5 -22 -12 -20 -18 6 -47 50
-51 75 -2 12 -7 26 -12 30 -4 5 -5 2 0 -6 5 -9 3 -12 -6 -9 -8 3 -13 11 -11
17 3 14 -5 14 -13 1z"/>
<path d="M2160 1376 c0 -8 -7 -35 -15 -59 -16 -48 -9 -129 13 -133 7 -1 8 0 2
3 -15 7 -12 55 5 77 8 11 12 29 9 39 -4 14 -3 17 7 12 9 -6 11 -3 6 10 -5 11
-1 22 10 30 20 15 18 19 -14 29 -17 6 -23 3 -23 -8z"/>
<path d="M2501 1301 c7 -10 9 -27 5 -37 -6 -16 -9 -16 -17 -4 -9 13 -10 13 -6
0 2 -8 15 -15 28 -15 25 0 50 -15 43 -27 -3 -4 6 -12 18 -19 29 -16 48 -35 48
-48 0 -6 5 -11 10 -11 6 0 10 15 10 34 0 19 -4 38 -10 41 -5 3 -10 1 -10 -4 0
-6 -4 -11 -10 -11 -5 0 -10 9 -10 20 0 11 -5 20 -11 20 -7 0 -9 9 -6 21 4 16
2 19 -11 14 -44 -18 -54 -18 -51 1 4 21 -7 44 -22 44 -5 0 -4 -8 2 -19z"/>
<path d="M1935 1263 c7 -21 18 -39 25 -41 6 -2 2 14 -9 37 -27 51 -33 53 -16
4z"/>
<path d="M2711 1288 c2 -2 16 -14 32 -27 15 -14 27 -20 27 -13 0 16 -29 42
-47 42 -9 0 -14 -1 -12 -2z"/>
<path d="M1818 1255 c-10 -13 -34 -29 -53 -36 -38 -14 -49 -35 -12 -23 33 10
66 34 78 56 15 28 7 30 -13 3z"/>
<path d="M1218 1254 c-23 -7 -23 -5 11 -67 16 -28 34 -70 41 -92 7 -22 17 -44
22 -50 16 -15 -1 67 -17 85 -7 8 -23 35 -35 59 l-22 44 29 -7 c81 -19 120
-163 72 -264 -26 -53 -58 -71 -100 -55 -38 15 -37 9 6 -31 22 -21 35 -28 35
-19 0 8 8 13 18 12 9 -1 25 1 35 6 10 4 36 5 57 2 22 -3 43 -1 46 4 3 5 2 9
-3 8 -4 -1 -21 3 -36 9 -16 7 -34 12 -40 12 -14 1 49 60 63 60 6 0 10 -16 10
-35 0 -26 3 -33 15 -29 8 4 12 10 9 15 -3 5 2 40 12 79 21 89 13 146 -29 202
-28 37 -38 43 -72 44 -22 1 -56 4 -75 7 -19 3 -43 3 -52 1z m156 -60 c3 -8 0
-11 -9 -8 -7 3 -15 -2 -17 -12 -2 -15 -5 -14 -14 7 -10 22 -9 24 12 25 12 1
25 -4 28 -12z m63 -60 c8 -21 -13 -64 -31 -64 -30 0 -51 83 -23 93 16 6 47
-11 54 -29z m-64 -79 c-4 -11 3 -15 27 -15 25 0 31 -4 28 -17 -2 -10 -12 -18
-23 -18 -11 0 -28 -9 -38 -20 -17 -18 -18 -18 -13 -2 3 10 6 37 6 58 0 23 4
38 10 34 5 -3 7 -12 3 -20z"/>
<path d="M2398 1208 c-31 -29 -65 -71 -76 -94 -19 -37 -24 -40 -51 -36 -17 2
-31 8 -31 13 0 17 32 89 40 89 4 0 10 9 13 20 8 32 -9 14 -42 -44 l-30 -54 19
-52 c14 -38 17 -58 9 -71 -15 -29 -21 -23 -18 19 3 30 0 36 -14 34 -9 -2 -20
4 -23 13 -9 23 -29 18 -43 -11 -12 -26 -8 -44 11 -44 5 0 23 -9 38 -20 28 -20
29 -21 14 -56 -8 -20 -13 -38 -10 -41 3 -3 8 6 12 21 7 31 24 35 24 6 0 -30
-25 -75 -55 -98 -27 -21 -32 -32 -14 -32 6 0 26 16 45 35 28 29 34 43 34 78 0
32 5 45 21 55 16 11 18 16 9 27 -7 8 -10 21 -7 28 3 7 -1 21 -9 32 -20 27 -18
47 4 41 57 -17 72 -18 67 -4 -3 7 2 22 10 33 16 19 16 18 12 -15 -5 -37 15
-81 28 -61 3 6 2 11 -3 11 -8 0 -5 89 4 99 2 2 14 -3 28 -12 36 -24 65 -77 62
-115 -2 -36 17 -62 30 -41 4 7 2 15 -4 17 -23 7 -6 82 18 82 14 0 30 -69 23
-101 -3 -15 -21 -47 -41 -70 -31 -36 -34 -42 -19 -51 9 -5 17 -16 17 -24 0 -8
4 -12 10 -9 11 7 55 -60 76 -114 l14 -36 -7 40 c-3 22 -10 48 -14 57 -13 24
-11 27 14 21 12 -2 3 6 -20 18 l-43 23 43 41 c23 23 52 62 64 86 l22 44 -32
11 c-18 6 -32 16 -31 22 1 7 2 20 3 31 2 26 45 16 59 -13 10 -23 74 -42 95
-29 17 11 -21 30 -51 26 -26 -4 -26 -4 -8 11 11 9 26 16 34 16 22 0 53 -20 47
-31 -4 -5 9 -9 28 -9 20 0 46 -9 61 -21 14 -11 26 -16 26 -11 0 13 -20 28 -50
37 -14 4 -37 16 -52 26 -14 11 -40 19 -58 19 -27 0 -31 3 -28 23 2 16 11 23
32 25 30 4 96 47 96 63 0 4 -12 -3 -26 -16 -15 -14 -38 -25 -52 -25 -14 0 -34
-7 -44 -17 -16 -14 -18 -15 -18 0 0 9 5 19 10 22 6 3 10 13 10 21 0 8 -4 14
-10 14 -5 0 -10 -7 -10 -15 0 -18 -20 -20 -20 -2 -1 7 -7 4 -15 -7 -12 -16
-11 -21 6 -39 20 -22 25 -62 9 -72 -5 -3 -10 1 -10 10 0 21 -41 75 -57 75 -8
0 -13 -13 -14 -32 -1 -33 -1 -33 -10 6 -7 29 -6 42 3 49 10 7 9 8 -2 4 -9 -3
-28 8 -44 24 -16 15 -44 33 -63 40 -28 9 -32 13 -22 25 24 29 1 12 -53 -38z
m103 -39 c35 -25 83 -114 74 -138 -5 -13 -9 -12 -20 9 -7 14 -36 44 -63 68
-43 35 -55 41 -81 36 -34 -7 -40 5 -15 30 22 22 70 20 105 -5z m88 -243 c9
-10 7 -19 -8 -37 -19 -23 -20 -23 -38 -6 -16 15 -16 19 -3 27 8 5 11 10 7 10
-5 0 -5 5 -2 10 9 14 31 12 44 -4z"/>
<path d="M560 1198 c0 -6 -8 -20 -17 -31 -10 -11 -13 -17 -6 -14 23 14 26 -16
3 -35 -22 -18 -24 -18 -33 -2 -6 11 -5 19 3 24 9 6 7 13 -9 29 l-21 21 0 -25
c0 -14 6 -35 13 -48 6 -12 12 -23 13 -25 0 -1 15 3 32 9 30 10 32 14 32 60 0
27 -2 49 -5 49 -3 0 -5 -5 -5 -12z"/>
<path d="M435 1195 c-108 -32 -105 -29 -79 -61 13 -16 15 -16 10 -1 -3 9 -1
17 5 17 6 0 7 5 3 11 -5 8 6 10 34 8 30 -3 43 0 51 13 11 18 4 22 -24 13z"/>
<path d="M305 1160 c-4 -12 -15 -20 -28 -20 -20 0 -20 0 -1 -14 10 -8 21 -10
22 -5 2 5 7 7 10 5 4 -2 7 9 8 25 1 34 -2 37 -11 9z"/>
<path d="M1000 1143 c-29 -32 -31 -33 -54 -18 -20 13 -24 13 -29 2 -3 -8 -2
-20 3 -27 6 -10 9 -8 12 6 3 17 7 15 33 -13 17 -17 44 -37 60 -44 l30 -13 -38
-4 c-26 -2 -49 3 -72 18 -53 33 -66 19 -22 -24 20 -21 37 -39 37 -41 0 -1 -9
-5 -20 -8 -14 -4 -20 -14 -20 -35 0 -16 -3 -43 -6 -60 -5 -26 -9 -29 -19 -18
-10 10 -12 28 -6 70 9 63 -3 75 -18 19 -20 -72 -16 -84 47 -135 21 -17 22 -17
22 6 0 12 9 49 20 81 11 31 17 61 14 66 -7 13 3 11 34 -5 48 -24 82 -28 82
-11 0 11 -6 14 -25 9 -18 -4 -25 -2 -25 9 0 8 13 17 31 21 47 9 52 8 46 -14
-7 -26 3 -25 39 2 31 24 49 43 64 70 9 15 8 15 -21 1 -54 -27 -193 3 -206 44
-6 17 87 75 107 67 8 -3 21 -9 29 -12 10 -4 12 -1 6 9 -5 8 -4 11 1 6 9 -8 10
-12 12 -55 3 -33 22 -17 22 17 0 41 -20 52 -85 50 -50 -2 -59 -6 -85 -36z"/>
<path d="M380 1140 c0 -6 7 -13 15 -16 9 -4 15 -11 14 -18 -1 -6 -1 -30 0 -53
1 -38 4 -43 24 -43 20 1 20 2 4 11 -14 8 -16 18 -11 50 5 30 2 44 -11 59 -20
22 -35 26 -35 10z"/>
<path d="M221 1120 c7 -14 17 -50 20 -80 l7 -55 -2 63 c-2 45 -7 67 -20 80
-18 16 -18 16 -5 -8z"/>
<path d="M329 1089 c6 -18 6 -30 -1 -37 -5 -5 -8 -18 -6 -27 2 -13 7 -9 19 16
15 32 15 35 -3 54 -19 20 -19 20 -9 -6z"/>
<path d="M590 1082 c-8 -2 -24 -12 -35 -21 -18 -15 -19 -15 -6 2 8 10 9 17 3
17 -6 0 -14 -5 -17 -10 -4 -6 -11 -8 -16 -5 -5 4 -9 -2 -9 -12 0 -10 -12 -26
-27 -36 l-28 -18 29 6 c15 3 35 12 42 20 8 7 28 16 45 20 17 4 33 13 36 21 7
18 2 23 -17 16z"/>
<path d="M1604 1023 c-18 -69 -10 -109 39 -202 26 -50 44 -91 41 -91 -4 0 5
-11 20 -25 15 -14 31 -25 36 -25 5 0 12 -11 16 -24 3 -14 17 -32 31 -41 34
-22 22 -30 -16 -11 -40 21 -39 22 -47 -21 -4 -21 -13 -50 -21 -66 -19 -37 -94
-117 -110 -117 -8 0 -28 -8 -46 -17 -34 -17 -100 -20 -152 -5 -27 8 -30 12
-28 48 1 21 2 76 2 121 0 46 5 84 11 88 6 3 17 22 25 41 8 19 28 42 45 52 16
9 30 23 30 30 0 7 12 20 28 29 15 9 40 42 55 72 l28 56 -25 -24 c-13 -12 -29
-35 -35 -49 -7 -15 -33 -45 -60 -67 -27 -22 -66 -69 -87 -105 l-38 -65 2 -114
c1 -114 1 -114 -29 -142 -36 -34 -36 -39 -1 -30 15 4 27 14 27 22 0 10 15 15
55 17 52 2 54 1 35 -14 -20 -17 -20 -17 0 -9 11 5 38 7 60 7 99 -4 116 -2 146
13 25 13 29 19 18 26 -11 7 -10 9 6 9 15 0 17 2 6 12 -10 11 -17 7 -35 -15
-17 -21 -34 -30 -67 -34 l-44 -5 40 24 c22 12 66 38 98 56 31 19 57 39 57 44
0 6 -6 5 -15 -2 -25 -21 -17 5 10 30 13 12 22 26 20 30 -2 4 3 17 12 29 11 16
23 22 39 18 13 -2 24 0 24 5 0 5 8 8 18 7 32 -3 41 1 36 15 -4 10 5 16 25 21
47 10 49 27 3 19 -87 -14 -161 41 -199 149 -13 34 -23 70 -23 80 0 11 -6 17
-17 15 -13 -2 -19 5 -21 26 -3 23 0 28 12 23 19 -8 20 0 1 33 -8 14 -14 37
-15 53 0 35 -18 35 -26 0z"/>
<path d="M211 1013 c-1 -30 17 -67 40 -81 25 -16 25 0 -1 23 -11 10 -24 32
-29 49 -7 24 -9 26 -10 9z"/>
<path d="M599 984 c12 -15 21 -41 21 -58 1 -17 7 -42 15 -56 8 -14 14 -37 15
-52 0 -15 5 -30 10 -33 11 -7 13 -55 3 -80 -3 -10 -24 -26 -47 -36 -23 -10
-37 -19 -32 -19 6 0 1 -7 -10 -15 -10 -8 -14 -15 -8 -15 6 0 17 7 24 15 7 8
18 15 24 15 7 0 41 28 77 63 36 34 51 49 32 33 -18 -16 -35 -27 -38 -24 -4 3
-7 29 -7 57 -1 29 -7 56 -15 62 -8 8 -11 24 -7 48 3 21 1 54 -4 74 -7 26 -7
37 1 40 7 2 -8 4 -31 5 l-43 2 20 -26z"/>
<path d="M396 992 c-3 -5 -8 -28 -12 -50 -4 -23 -10 -39 -15 -36 -5 3 -9 1 -9
-5 0 -15 18 -23 32 -14 8 5 13 29 13 61 0 55 -1 57 -9 44z"/>
<path d="M2796 991 c5 -5 25 -12 44 -15 33 -7 34 -6 16 9 -21 16 -77 22 -60 6z"/>
<path d="M2755 970 c11 -12 41 -33 66 -45 54 -28 66 -41 72 -80 2 -16 4 -5 3
26 -1 40 -5 55 -13 52 -15 -6 -103 27 -103 38 0 5 -10 14 -22 20 l-23 12 20
-23z"/>
<path d="M197 956 c-9 -22 18 -75 51 -102 45 -37 5 -74 -42 -39 -41 31 -114 3
-117 -44 0 -9 -3 -25 -6 -36 -17 -68 -16 -71 34 -123 26 -28 65 -58 85 -66 20
-9 44 -26 52 -38 10 -15 16 -17 16 -8 -1 23 -22 45 -56 59 -17 6 -52 33 -78
59 -42 41 -47 50 -41 77 3 16 6 42 6 57 0 18 9 35 26 48 33 25 36 25 70 -5
l28 -26 -30 3 c-16 1 -39 -3 -50 -10 -18 -10 -15 -11 23 -12 26 0 41 -4 37
-10 -3 -5 -2 -10 3 -10 5 0 14 12 20 26 18 39 56 30 60 -14 2 -23 8 -32 17
-28 7 2 19 -2 27 -11 11 -14 9 -15 -19 -11 l-32 4 -6 -55 c-4 -31 -9 -64 -11
-73 -3 -10 0 -18 6 -18 6 0 9 -4 6 -9 -7 -10 51 -21 117 -21 26 0 47 -3 47 -6
0 -3 -18 -31 -40 -61 -39 -55 -49 -83 -30 -83 5 0 12 11 16 24 3 13 19 36 34
50 17 14 34 44 40 68 6 24 20 57 31 73 14 21 10 18 -14 -9 -32 -36 -40 -40
-96 -44 -59 -4 -73 2 -51 24 6 6 11 38 13 72 2 66 9 76 28 40 l12 -22 8 22
c10 26 14 27 59 2 30 -16 32 -19 16 -26 -10 -4 -21 -2 -25 3 -4 7 -10 6 -18
-2 -10 -11 -6 -15 19 -24 39 -14 38 -14 38 4 0 18 5 19 29 3 11 -6 16 -19 13
-30 -3 -14 1 -18 22 -16 l27 2 -36 34 c-38 36 -42 47 -22 56 6 3 2 3 -11 0
-23 -6 -86 18 -97 36 -4 7 -12 7 -23 1 -28 -16 -69 16 -82 65 -7 24 -10 50 -7
59 4 10 -4 20 -23 30 -30 16 -48 40 -59 84 -6 22 -8 23 -14 7z m141 -299 c3
-12 -3 -17 -19 -17 -22 0 -22 -1 -4 -13 13 -10 15 -16 6 -21 -9 -6 -9 -11 0
-22 15 -18 -2 -40 -23 -31 -17 6 -21 82 -7 109 12 23 42 20 47 -5z"/>
<path d="M350 961 c0 -6 -7 -11 -15 -11 -8 0 -15 -5 -15 -11 0 -6 -7 -8 -16
-5 -8 3 -12 2 -9 -3 3 -5 1 -13 -5 -16 -8 -5 -7 -11 1 -21 9 -11 8 -14 -2 -14
-9 0 -10 -3 -2 -11 14 -14 34 -3 27 15 -3 8 7 21 25 32 31 18 39 38 21 49 -5
3 -10 1 -10 -4z"/>
<path d="M1744 946 c-3 -9 -3 -33 2 -54 4 -20 8 -42 7 -49 0 -6 14 -26 33 -44
27 -26 36 -30 48 -20 8 7 14 18 12 24 -1 7 -1 9 1 5 2 -4 11 -4 19 -1 20 8 18
-24 -3 -36 -17 -10 4 -13 130 -15 18 -1 32 -9 39 -21 18 -34 71 -85 110 -107
l38 -22 -33 -27 c-24 -21 -28 -28 -14 -29 9 0 17 -4 17 -9 0 -5 -17 -7 -37 -5
l-38 4 33 -30 c36 -35 42 -60 13 -60 -10 0 -24 -7 -31 -16 -8 -8 -9 -14 -4
-13 23 4 55 -2 50 -10 -9 -15 19 -31 64 -37 30 -4 40 -3 36 5 -4 6 -15 11 -24
11 -32 0 -62 29 -62 60 0 35 36 134 56 154 12 13 11 15 -7 21 -24 8 -20 29 7
33 53 8 64 13 64 32 0 13 7 20 18 20 10 0 27 9 38 21 10 12 33 36 51 54 25 25
29 34 18 39 -8 3 -22 -5 -33 -18 -32 -41 -113 -106 -131 -106 -10 0 -39 19
-65 41 -41 36 -53 41 -95 41 -26 0 -63 -3 -81 -7 -23 -5 -30 -4 -26 4 11 17
-19 24 -44 11 -19 -10 -20 -9 -15 12 4 17 0 30 -14 42 -18 16 -23 17 -37 5
-15 -12 -16 -11 -10 8 8 24 -12 63 -32 63 -7 0 -12 8 -10 18 4 23 -49 30 -58
8z m54 -52 c-9 -9 -21 -13 -27 -10 -20 13 -11 26 16 26 25 0 26 -1 11 -16z
m28 -46 c-3 -7 -9 -21 -12 -30 -8 -23 -23 -23 -31 -2 -4 11 1 22 12 30 23 17
39 18 31 2z m314 -139 c0 -22 -13 -31 -34 -23 -19 7 -21 35 -4 52 15 15 38 -3
38 -29z m50 -17 c0 -11 -41 -34 -48 -27 -4 4 2 13 12 21 22 15 36 18 36 6z"/>
<path d="M2374 914 c-13 -39 -2 -44 20 -12 19 27 20 34 3 41 -8 3 -17 -8 -23
-29z"/>
<path d="M2464 941 c3 -5 -13 -30 -36 -57 -40 -46 -28 -41 35 15 31 28 33 36
11 45 -8 3 -13 2 -10 -3z"/>
<path d="M2675 941 c6 -6 37 -20 69 -31 33 -11 74 -32 93 -46 39 -29 56 -25
27 7 -25 28 -49 40 -89 45 -18 2 -50 11 -71 20 -21 9 -34 11 -29 5z"/>
<path d="M2115 930 c3 -5 13 -10 20 -10 8 0 20 -10 26 -22 8 -15 14 -18 17
-10 6 18 -27 52 -50 52 -11 0 -16 -4 -13 -10z"/>
<path d="M1075 908 c-2 -7 -13 -52 -26 -100 -12 -48 -29 -95 -38 -105 -26 -28
-38 -66 -31 -93 6 -25 -5 -58 -25 -72 -6 -5 -5 -8 3 -8 6 0 12 -10 12 -22 1
-21 2 -21 11 -5 6 10 9 23 6 30 -6 19 20 86 63 158 22 38 45 94 53 130 8 35
17 72 22 82 6 14 2 17 -19 17 -15 0 -28 -6 -31 -12z"/>
<path d="M534 894 c9 -8 16 -21 16 -27 0 -7 -7 -4 -14 6 -12 15 -14 15 -19 3
-4 -9 -2 -18 3 -21 17 -10 11 -28 -6 -21 -14 5 -16 1 -10 -24 5 -27 4 -29 -12
-21 -14 7 -24 4 -43 -13 -13 -12 -30 -21 -37 -18 -6 2 -12 -4 -12 -13 0 -9 5
-13 10 -10 6 4 18 1 26 -6 12 -10 13 -9 8 4 -4 11 4 21 25 32 24 12 31 12 31
3 1 -7 11 0 24 16 14 17 26 24 30 18 4 -6 19 -10 35 -9 l28 2 -19 40 c-11 22
-22 48 -25 58 -3 10 -15 17 -30 17 -22 0 -23 -1 -9 -16z"/>
<path d="M2777 835 c3 -16 10 -32 15 -33 4 -2 6 -8 3 -12 -3 -5 -1 -11 5 -15
16 -10 11 17 -10 55 -20 35 -20 35 -13 5z"/>
<path d="M1540 784 c0 -3 9 -19 20 -34 19 -27 104 -69 116 -57 3 3 -8 8 -25
12 -28 6 -91 59 -91 77 0 4 -4 8 -10 8 -5 0 -10 -3 -10 -6z"/>
<path d="M585 760 c5 -14 2 -18 -7 -15 -8 3 -23 -4 -33 -15 l-18 -20 -23 21
c-12 12 -29 19 -36 16 -9 -4 -7 -6 5 -6 9 -1 17 -5 17 -10 0 -5 7 -17 16 -26
14 -14 18 -14 33 -2 9 8 26 18 37 21 25 8 40 56 17 56 -10 0 -12 -6 -8 -20z"/>
<path d="M2655 770 l-40 -7 43 -2 c23 0 42 -6 42 -11 0 -6 8 -5 20 2 14 9 16
14 7 20 -13 8 -14 8 -72 -2z"/>
<path d="M1480 724 c0 -20 56 -63 113 -88 81 -37 95 -32 17 5 -36 17 -80 44
-97 62 -18 17 -33 26 -33 21z"/>
<path d="M170 712 c-27 -9 -39 -34 -24 -49 19 -19 26 -16 19 10 -4 16 -4 18 3
8 8 -11 14 -11 33 3 18 12 19 16 7 16 -9 0 -18 4 -20 9 -1 4 -10 6 -18 3z"/>
<path d="M2015 688 c-6 -13 -26 -31 -45 -40 -19 -10 -30 -18 -25 -19 6 -1 17
-2 25 -3 8 -2 23 -3 33 -4 10 -1 24 -17 33 -37 15 -37 20 -40 43 -26 11 7 6
17 -23 46 -33 33 -37 42 -31 71 7 39 4 43 -10 12z"/>
<path d="M939 638 c-1 -5 -2 -13 -3 -18 0 -6 -8 -15 -16 -20 -11 -7 -11 -10
-2 -10 7 0 11 -4 8 -9 -3 -5 1 -12 10 -15 8 -3 12 -2 9 4 -3 5 -2 18 4 28 6
11 6 24 0 33 -5 7 -9 11 -10 7z"/>
<path d="M1410 632 c0 -13 30 -36 73 -55 54 -25 59 -21 9 8 -23 13 -50 31 -58
40 -17 17 -24 19 -24 7z"/>
<path d="M1907 529 c18 -39 23 -65 22 -115 -1 -35 -5 -64 -9 -64 -3 0 -14 -16
-23 -35 l-17 -35 54 -27 c60 -31 145 -121 126 -133 -24 -15 -65 5 -75 36 -5
16 -10 30 -11 32 -1 1 -15 7 -33 12 -19 5 -29 5 -26 -1 4 -5 2 -9 -3 -9 -6 0
-8 -9 -5 -20 5 -19 6 -19 18 -3 11 15 15 15 30 3 9 -7 23 -26 30 -41 l14 -27
-202 5 c-111 3 -212 10 -225 14 -28 11 -44 51 -33 82 9 24 4 77 -8 77 -3 0 -6
-28 -5 -63 1 -103 1 -105 34 -112 16 -4 31 -5 33 -3 2 2 10 -2 18 -9 10 -8 62
-12 154 -13 77 -1 169 -1 203 -2 71 -1 114 21 120 60 4 26 -74 107 -122 127
-38 16 -51 51 -29 81 7 10 13 26 13 36 0 10 5 17 12 16 6 -2 14 5 16 15 3 13
-1 17 -15 15 -13 -2 -17 3 -16 17 1 11 -2 34 -7 52 -4 18 -4 33 1 35 4 2 -7
13 -25 25 l-33 22 24 -50z"/>
<path d="M623 531 c38 -42 38 -43 20 -63 -18 -20 -18 -21 3 -10 47 25 46 36
-9 76 l-52 39 38 -42z"/>
<path d="M2300 531 c-14 -28 -13 -31 12 -31 16 0 19 3 11 11 -6 6 -9 18 -6 25
8 21 -5 17 -17 -5z"/>
<path d="M1401 519 c51 -47 65 -54 117 -68 70 -18 78 -8 10 14 -29 10 -63 24
-75 31 -13 8 -35 21 -50 30 l-28 16 26 -23z"/>
<path d="M897 510 c-14 -11 -32 -19 -39 -18 -8 2 -12 -5 -10 -20 4 -25 7 -26
-66 11 -57 29 -82 20 -89 -28 -2 -11 -11 -27 -21 -35 -10 -8 -23 -24 -29 -35
-9 -15 -29 -23 -82 -31 l-71 -10 0 31 c0 17 5 36 11 42 12 12 42 6 35 -6 -5
-8 40 -9 48 -1 3 3 -5 7 -17 7 -12 1 -26 8 -32 15 -12 16 -60 24 -51 10 4 -6
2 -13 -2 -16 -5 -3 -7 -16 -5 -29 4 -20 -1 -26 -26 -35 -25 -9 -31 -8 -31 3 0
12 -5 12 -25 3 -34 -15 -19 -28 39 -33 25 -2 50 -6 55 -9 14 -9 144 22 152 36
4 7 21 30 38 52 17 21 31 45 31 52 0 19 40 18 78 -1 l31 -16 -22 -26 c-12 -15
-31 -36 -43 -47 -28 -28 -58 -86 -43 -86 7 0 8 -11 4 -30 -4 -17 -8 -56 -9
-87 -2 -48 1 -59 23 -83 14 -15 41 -35 60 -45 33 -17 35 -16 74 5 37 21 41 22
52 7 15 -21 78 -22 95 -2 14 16 46 20 54 6 14 -23 48 -18 88 14 24 17 47 32
51 33 23 1 17 12 -6 12 -21 0 -31 8 -46 39 -11 21 -18 41 -15 43 10 11 -91 36
-108 27 -10 -5 -30 -6 -45 -3 l-28 7 24 -20 c13 -11 25 -27 27 -35 2 -14 -1
-14 -26 0 -27 15 -30 15 -49 -2 -12 -11 -21 -29 -21 -40 0 -19 1 -19 13 4 19
39 51 37 75 -3 20 -34 20 -35 0 -54 -18 -18 -23 -19 -56 -8 -35 12 -38 17 -50
74 -13 57 -12 63 5 79 10 9 13 13 6 8 -7 -5 -13 -5 -13 -2 0 4 -6 1 -14 -7 -8
-8 -12 -24 -9 -40 6 -30 -8 -35 -27 -12 -17 20 -25 19 -52 -7 -13 -13 -19 -20
-14 -16 17 13 64 9 80 -8 21 -21 20 -47 -3 -68 -18 -16 -21 -16 -53 -1 -63 32
-68 42 -68 120 0 60 5 82 31 134 20 40 41 67 60 76 16 9 29 22 29 29 0 8 21
33 46 55 48 42 48 58 1 21z m188 -314 c9 -13 25 -26 37 -29 18 -5 20 -11 15
-43 -8 -49 -18 -58 -50 -43 -32 15 -52 43 -62 88 -11 52 31 71 60 27z"/>
<path d="M2425 510 c-28 -7 -28 -8 12 -9 23 0 45 4 48 9 7 11 -16 11 -60 0z"/>
<path d="M2500 511 c0 -5 16 -26 35 -47 27 -28 34 -42 29 -63 -5 -23 -4 -24 6
-8 16 25 5 64 -28 98 -28 30 -42 36 -42 20z"/>
<path d="M2460 473 c0 -5 8 -21 19 -36 17 -26 19 -27 24 -8 3 12 -2 26 -12 35
-19 17 -31 20 -31 9z"/>
<path d="M1994 423 c10 -10 76 -11 76 -1 0 4 -19 8 -42 8 -23 0 -38 -3 -34 -7z"/>
<path d="M2491 376 c-10 -12 -9 -14 6 -11 10 2 24 4 31 4 6 1 12 6 12 11 0 15
-36 12 -49 -4z"/>
<path d="M1007 334 c-3 -3 -23 -12 -44 -19 l-38 -14 31 -1 c19 0 38 8 49 20
16 18 18 30 2 14z"/>
<path d="M1246 276 c-9 -14 -33 -35 -54 -45 -20 -11 -32 -20 -27 -21 6 0 28
11 50 24 l39 24 42 -29 c24 -16 53 -29 66 -28 21 1 20 2 -5 9 -35 11 -55 27
-77 63 l-17 28 -17 -25z"/>
<path d="M2961 249 c-25 -15 -31 -23 -23 -31 16 -16 62 10 62 34 0 22 2 22
-39 -3z"/>
<path d="M2825 229 c-14 -17 -23 -34 -20 -37 3 -3 6 -3 8 -1 1 2 15 19 31 37
17 17 25 32 19 32 -6 0 -23 -14 -38 -31z"/>
<path d="M2786 140 c19 -70 79 -110 165 -110 64 0 58 11 -8 16 -71 5 -102 22
-135 73 -19 30 -27 37 -22 21z"/>
<path d="M2945 141 c-27 -6 -28 -8 -12 -17 24 -14 67 -6 67 12 0 15 -7 16 -55
5z"/>
<path d="M2690 91 c0 -7 11 -22 25 -35 27 -26 65 -40 65 -25 0 5 -4 9 -10 9
-5 0 -25 14 -45 31 -19 17 -35 26 -35 20z"/>
</g>
</svg>
